<svg width="108" height="22" viewBox="0 0 108 22" fill="none" xmlns="http://www.w3.org/2000/svg">
<path d="M7.84 21.16C6.92267 21.16 6.048 20.9787 5.216 20.616C4.384 20.232 3.648 19.7093 3.008 19.048C2.38933 18.3653 1.888 17.5653 1.504 16.648C1.14133 15.7307 0.96 14.728 0.96 13.64C0.96 12.552 1.14133 11.5493 1.504 10.632C1.888 9.71467 2.38933 8.92533 3.008 8.264C3.648 7.58133 4.384 7.05867 5.216 6.696C6.048 6.312 6.92267 6.12 7.84 6.12C8.39467 6.12 8.896 6.184 9.344 6.312C9.81333 6.44 10.208 6.58933 10.528 6.76C10.912 6.952 11.2427 7.16533 11.52 7.4V0.839998H15.84V21H12.64L12 19.56C11.6587 19.8587 11.2853 20.1253 10.88 20.36C10.5173 20.5733 10.08 20.7653 9.568 20.936C9.056 21.0853 8.48 21.16 7.84 21.16ZM5.28 13.64C5.28 14.6853 5.58933 15.5387 6.208 16.2C6.82667 16.84 7.584 17.16 8.48 17.16C9.376 17.16 10.1333 16.84 10.752 16.2C11.3707 15.5387 11.68 14.6853 11.68 13.64C11.68 12.5947 11.3707 11.752 10.752 11.112C10.1333 10.4507 9.376 10.12 8.48 10.12C7.584 10.12 6.82667 10.4507 6.208 11.112C5.58933 11.752 5.28 12.5947 5.28 13.64ZM18.3975 13.64C18.3975 12.552 18.5895 11.5493 18.9735 10.632C19.3788 9.69333 19.9228 8.88267 20.6055 8.2C21.2882 7.496 22.0775 6.952 22.9735 6.568C23.8908 6.16267 24.8722 5.96 25.9175 5.96C26.9628 5.96 27.9335 6.16267 28.8295 6.568C29.7468 6.952 30.5468 7.496 31.2295 8.2C31.9122 8.88267 32.4455 9.69333 32.8295 10.632C33.2348 11.5493 33.4375 12.552 33.4375 13.64C33.4375 14.728 33.2348 15.7413 32.8295 16.68C32.4455 17.5973 31.9122 18.408 31.2295 19.112C30.5468 19.7947 29.7468 20.3387 28.8295 20.744C27.9335 21.128 26.9628 21.32 25.9175 21.32C24.8722 21.32 23.8908 21.128 22.9735 20.744C22.0775 20.3387 21.2882 19.7947 20.6055 19.112C19.9228 18.408 19.3788 17.5973 18.9735 16.68C18.5895 15.7413 18.3975 14.728 18.3975 13.64ZM29.1175 13.64C29.1175 12.5093 28.8082 11.6133 28.1895 10.952C27.5708 10.2907 26.8135 9.96 25.9175 9.96C25.0215 9.96 24.2642 10.2907 23.6455 10.952C23.0268 11.6133 22.7175 12.5093 22.7175 13.64C22.7175 14.7707 23.0268 15.6667 23.6455 16.328C24.2642 16.9893 25.0215 17.32 25.9175 17.32C26.8135 17.32 27.5708 16.9893 28.1895 16.328C28.8082 15.6667 29.1175 14.7707 29.1175 13.64ZM37.2863 10.28H35.0463V6.6H36.1663C37.3396 6.6 37.9263 6.01333 37.9263 4.84V2.76H41.6063V6.28H44.6463V10.28H41.6063V15.08C41.6063 15.72 41.7876 16.232 42.1503 16.616C42.5129 16.9787 42.9716 17.16 43.5263 17.16C43.6969 17.16 43.8463 17.16 43.9743 17.16C44.1023 17.1387 44.2196 17.1173 44.3263 17.096C44.4329 17.0747 44.5396 17.0427 44.6463 17V20.84C44.4756 20.904 44.2836 20.9573 44.0703 21C43.6436 21.1067 43.1423 21.16 42.5663 21.16C40.8809 21.16 39.5796 20.7013 38.6623 19.784C37.7449 18.8453 37.2863 17.4907 37.2863 15.72V10.28ZM61.7738 21H57.4538V10.92H52.9738V21H48.6538V10.92H46.7338V6.92H48.6538V6.12C48.6538 4.34933 49.1124 3.00533 50.0298 2.088C50.9471 1.14933 52.2484 0.679998 53.9338 0.679998C54.2324 0.679998 54.5098 0.701332 54.7658 0.743999C55.0218 0.765333 55.2458 0.797332 55.4378 0.839998C55.6511 0.903999 55.8431 0.957333 56.0138 1V4.84C55.9071 4.81867 55.8004 4.79733 55.6938 4.776C55.5871 4.75467 55.4698 4.73333 55.3418 4.712C55.2138 4.69067 55.0644 4.68 54.8938 4.68C54.3391 4.68 53.8804 4.872 53.5178 5.256C53.1551 5.61867 52.9738 6.12 52.9738 6.76V6.92H61.7738V21ZM57.2938 3.08C57.2938 2.44 57.5284 1.88533 57.9978 1.416C58.4884 0.925332 59.0538 0.679998 59.6938 0.679998C60.3338 0.679998 60.8884 0.925332 61.3578 1.416C61.8484 1.88533 62.0938 2.44 62.0938 3.08C62.0938 3.72 61.8484 4.28533 61.3578 4.776C60.8884 5.24533 60.3338 5.48 59.6938 5.48C59.0538 5.48 58.4884 5.24533 57.9978 4.776C57.5284 4.28533 57.2938 3.72 57.2938 3.08ZM69.6075 21H65.2875V0.839998H69.6075V21ZM86.4188 16.68C86.2268 17.2773 85.9388 17.8533 85.5548 18.408C85.1708 18.9627 84.6908 19.464 84.1148 19.912C83.5388 20.3387 82.8668 20.68 82.0988 20.936C81.3521 21.192 80.4988 21.32 79.5388 21.32C78.5361 21.32 77.5868 21.128 76.6908 20.744C75.8161 20.3387 75.0374 19.7947 74.3548 19.112C73.6934 18.408 73.1601 17.5973 72.7548 16.68C72.3708 15.7413 72.1788 14.728 72.1788 13.64C72.1788 12.552 72.3708 11.5493 72.7548 10.632C73.1601 9.69333 73.7041 8.88267 74.3868 8.2C75.0694 7.496 75.8588 6.952 76.7548 6.568C77.6721 6.16267 78.6534 5.96 79.6988 5.96C80.7014 5.96 81.6401 6.14133 82.5148 6.504C83.3894 6.86667 84.1468 7.38933 84.7868 8.072C85.4481 8.73333 85.9601 9.544 86.3228 10.504C86.7068 11.4427 86.8988 12.488 86.8988 13.64C86.8988 13.8107 86.8881 13.9813 86.8668 14.152C86.8454 14.3013 86.8241 14.4507 86.8028 14.6C86.7814 14.7707 86.7601 14.9307 86.7388 15.08H76.6588C76.8294 15.6347 77.1708 16.1467 77.6828 16.616C78.2161 17.0853 78.8881 17.32 79.6988 17.32C80.1041 17.32 80.4454 17.2773 80.7228 17.192C81.0214 17.0853 81.2561 16.968 81.4268 16.84C81.6401 16.712 81.8108 16.552 81.9388 16.36L86.4188 16.68ZM79.6988 9.96C78.8881 9.96 78.2161 10.2053 77.6828 10.696C77.1708 11.1653 76.8294 11.72 76.6588 12.36H82.7388C82.5681 11.72 82.2161 11.1653 81.6828 10.696C81.1708 10.2053 80.5094 9.96 79.6988 9.96ZM92.8075 16.2C92.8928 16.6907 93.0955 17.0853 93.4155 17.384C93.7355 17.6613 94.1728 17.8 94.7275 17.8C95.2822 17.8 95.7088 17.672 96.0075 17.416C96.3275 17.1387 96.4875 16.84 96.4875 16.52C96.4875 16.264 96.2955 16.0613 95.9115 15.912C95.5488 15.7413 95.0902 15.5813 94.5355 15.432C93.9808 15.2613 93.3728 15.0693 92.7115 14.856C92.0715 14.6427 91.4742 14.3653 90.9195 14.024C90.3648 13.6613 89.8955 13.192 89.5115 12.616C89.1488 12.04 88.9675 11.3147 88.9675 10.44C88.9675 9.84267 89.0955 9.27733 89.3515 8.744C89.6075 8.18933 89.9702 7.70933 90.4395 7.304C90.9302 6.89867 91.5168 6.57867 92.1995 6.344C92.9035 6.088 93.6928 5.96 94.5675 5.96C96.4875 5.96 97.9488 6.38667 98.9515 7.24C99.9542 8.09333 100.573 9.16 100.808 10.44L96.6475 10.76C96.5622 10.44 96.3702 10.152 96.0715 9.896C95.7728 9.61867 95.3782 9.48 94.8875 9.48C94.3968 9.48 94.0342 9.58667 93.7995 9.8C93.5648 10.0133 93.4475 10.28 93.4475 10.6C93.4475 10.8773 93.6288 11.0907 93.9915 11.24C94.3755 11.3893 94.8448 11.5493 95.3995 11.72C95.9542 11.8693 96.5515 12.0507 97.1915 12.264C97.8528 12.4773 98.4608 12.7653 99.0155 13.128C99.5702 13.4693 100.029 13.928 100.392 14.504C100.776 15.08 100.968 15.8053 100.968 16.68C100.968 17.2773 100.829 17.8533 100.552 18.408C100.296 18.9627 99.9115 19.464 99.3995 19.912C98.8875 20.3387 98.2582 20.68 97.5115 20.936C96.7862 21.192 95.9648 21.32 95.0475 21.32C93.0422 21.32 91.5275 20.8827 90.5035 20.008C89.5008 19.1333 88.8822 17.9707 88.6475 16.52L92.8075 16.2Z" fill="#0D0D19"/>
<path d="M102.898 18.76C102.898 18.12 103.132 17.5653 103.602 17.096C104.092 16.6053 104.658 16.36 105.298 16.36C105.938 16.36 106.492 16.6053 106.962 17.096C107.452 17.5653 107.698 18.12 107.698 18.76C107.698 19.4 107.452 19.9653 106.962 20.456C106.492 20.9253 105.938 21.16 105.298 21.16C104.658 21.16 104.092 20.9253 103.602 20.456C103.132 19.9653 102.898 19.4 102.898 18.76Z" fill="#F4395B"/>
</svg>
